<?xml version="1.0" encoding="UTF-8" standalone="no"?>
<svg
   xmlns:dc="http://purl.org/dc/elements/1.1/"
   xmlns:cc="http://creativecommons.org/ns#"
   xmlns:rdf="http://www.w3.org/1999/02/22-rdf-syntax-ns#"
   xmlns:svg="http://www.w3.org/2000/svg"
   xmlns="http://www.w3.org/2000/svg"
   xmlns:sodipodi="http://sodipodi.sourceforge.net/DTD/sodipodi-0.dtd"
   xmlns:inkscape="http://www.inkscape.org/namespaces/inkscape"
   viewBox="0 0 91 91"
   id="vector"
   version="1.1"
   inkscape:version="0.91 r13725"
   sodipodi:docname="arm_left2.svg"
   width="91"
   height="91">
  <metadata
     id="metadata13">
    <rdf:RDF>
      <cc:Work
         rdf:about="">
        <dc:format>image/svg+xml</dc:format>
        <dc:type
           rdf:resource="http://purl.org/dc/dcmitype/StillImage" />
        <dc:title></dc:title>
      </cc:Work>
    </rdf:RDF>
  </metadata>
  <defs
     id="defs11" />
  <sodipodi:namedview
     pagecolor="#ffffff"
     bordercolor="#666666"
     borderopacity="1"
     objecttolerance="10"
     gridtolerance="10"
     guidetolerance="10"
     inkscape:pageopacity="0"
     inkscape:pageshadow="2"
     inkscape:window-width="1920"
     inkscape:window-height="1017"
     id="namedview9"
     showgrid="false"
     inkscape:zoom="3.3516484"
     inkscape:cx="5.8180328"
     inkscape:cy="17.5"
     inkscape:window-x="-8"
     inkscape:window-y="-8"
     inkscape:window-maximized="1"
     inkscape:current-layer="vector" />
  <g
     id="group"
     transform="translate(0,56)" />
  <g
     id="layer_2"
     transform="translate(0,32)">
    <g
       id="ui">
      <path
         id="path"
         d="M 6.8,15.2 81.2,0 c 4.6,-0.9 9.1,2 10.1,6.6 0.9,4.6 -2,9.1 -6.6,10.1 L 10.3,31.9 c -4.6,0.9 -9.1,-2 -10.1,-6.6 -0.9,-4.7 2,-9.2 6.6,-10.1 z"
         inkscape:connector-curvature="0"
         style="fill:#b5746f;stroke-width:1" />
      <path
         id="path_1"
         d="m 6.8,15.2 16.5,-3.3 c 4.6,-0.9 9.1,2.1 10,6.7 0.9,4.6 -2.1,9.1 -6.7,10 L 10.1,31.9 C 5.5,32.8 1,29.8 0.1,25.2 -0.8,20.6 2.2,16.1 6.8,15.2 Z"
         inkscape:connector-curvature="0"
         style="fill:#e8f7fc;stroke-width:1" />
      <path
         id="path_2"
         d="m 20,6.8 5.7,-1.1 c 2.9,-0.6 5.7,1.3 6.2,4.2 l 3.5,18.4 c 0.6,2.9 -1.3,5.7 -4.2,6.2 l -5.7,1.1 c -2.9,0.6 -5.7,-1.3 -6.2,-4.2 L 15.8,13 C 15.2,10.2 17.1,7.4 20,6.8 Z"
         inkscape:connector-curvature="0"
         style="fill:#e8f7fc;stroke-width:1" />
    </g>
  </g>
</svg>
