<?xml version="1.0" encoding="UTF-8" standalone="no"?>
<svg
   xmlns:dc="http://purl.org/dc/elements/1.1/"
   xmlns:cc="http://creativecommons.org/ns#"
   xmlns:rdf="http://www.w3.org/1999/02/22-rdf-syntax-ns#"
   xmlns:svg="http://www.w3.org/2000/svg"
   xmlns="http://www.w3.org/2000/svg"
   xmlns:sodipodi="http://sodipodi.sourceforge.net/DTD/sodipodi-0.dtd"
   xmlns:inkscape="http://www.inkscape.org/namespaces/inkscape"
   viewBox="0 0 91 91"
   id="vector"
   version="1.1"
   inkscape:version="0.91 r13725"
   sodipodi:docname="arm_left1.svg"
   width="91"
   height="91">
  <metadata
     id="metadata12">
    <rdf:RDF>
      <cc:Work
         rdf:about="">
        <dc:format>image/svg+xml</dc:format>
        <dc:type
           rdf:resource="http://purl.org/dc/dcmitype/StillImage" />
        <dc:title></dc:title>
      </cc:Work>
    </rdf:RDF>
  </metadata>
  <defs
     id="defs10" />
  <sodipodi:namedview
     pagecolor="#ffffff"
     bordercolor="#666666"
     borderopacity="1"
     objecttolerance="10"
     gridtolerance="10"
     guidetolerance="10"
     inkscape:pageopacity="0"
     inkscape:pageshadow="2"
     inkscape:window-width="1920"
     inkscape:window-height="1017"
     id="namedview8"
     showgrid="false"
     inkscape:zoom="3.3516484"
     inkscape:cx="5.8180328"
     inkscape:cy="16"
     inkscape:window-x="-8"
     inkscape:window-y="-8"
     inkscape:window-maximized="1"
     inkscape:current-layer="vector" />
  <g
     id="group"
     transform="translate(0,59)" />
  <g
     id="layer_2"
     transform="translate(0,31)">
    <g
       id="ui">
      <path
         id="path"
         d="M 6.836,15.201 81.211,0.164 c 4.612,-0.933 9.107,2.05 10.04,6.663 0.932,4.612 -2.051,9.106 -6.663,10.039 L 10.213,31.903 C 5.601,32.836 1.106,29.853 0.174,25.241 -0.759,20.628 2.224,16.134 6.836,15.201"
         inkscape:connector-curvature="0"
         style="fill:#b5746f;stroke-width:1" />
      <path
         id="path_1"
         d="M 6.844,15.198 23.32,11.867 c 2.215,-0.448 4.517,0.002 6.4,1.252 1.883,1.249 3.192,3.196 3.64,5.411 0.932,4.612 -2.051,9.106 -6.663,10.039 L 10.221,31.9 C 5.608,32.833 1.114,29.85 0.181,25.238 -0.751,20.625 2.232,16.131 6.844,15.198"
         inkscape:connector-curvature="0"
         style="fill:#ffd4d2;stroke-width:1" />
    </g>
  </g>
</svg>
