<svg xmlns="http://www.w3.org/2000/svg" viewBox="0 0 294.78 521.76"><defs><style>.cls-1{fill:#b5746f;}.cls-2{fill:#ffd4d2;}.cls-3{fill:#fee;}.cls-4,.cls-8{fill:#fff;}.cls-5{fill:#683330;}.cls-6{fill:#6d2e2e;}.cls-7{fill:#ad5050;}.cls-8{opacity:0.5;}.cls-9{fill:#ffa88d;}.cls-10{fill:#e58b73;}.cls-11{fill:#ffca5f;}.cls-12{fill:none;}.cls-13{fill:#ffeb76;}</style></defs><title>category_preview1</title><g id="Layer_2" data-name="Layer 2"><g id="UI"><polygon class="cls-1" points="119.84 427.14 133.35 427.14 142.01 344.46 131.17 344.46 119.84 427.14"/><polygon class="cls-1" points="113.74 496.28 128.13 497.56 133.35 426.35 119.84 426.35 113.74 496.28"/><path class="cls-2" d="M133.52,521.76H77.35s-12.4-25.32,46.19-27.7C139,493.43,133.52,521.76,133.52,521.76Z"/><path class="cls-3" d="M76,521.76a2.59,2.59,0,0,1-2.49-3.32c1.69-5.76,6.73-17.25,20.58-20,15.88-3.14,6.84,23.31,6.84,23.31Z"/><path class="cls-3" d="M130.93,496.47S129.27,503,119.2,501s-9.15-6-9.15-6S128.28,491.34,130.93,496.47Z"/><polygon class="cls-3" points="102.17 517.41 133.99 517.41 133.52 521.76 100.95 521.76 102.17 517.41"/><polygon class="cls-1" points="186.51 427.14 173 427.14 164.34 344.46 175.18 344.46 186.51 427.14"/><path class="cls-1" d="M197.22,192.43,166.38,212a25.73,25.73,0,0,1-27.58,0L108,192.47A25.73,25.73,0,0,1,96.1,171.42l-2.88-71.31a25.73,25.73,0,0,1,25.72-26.4h67.85a25.73,25.73,0,0,1,25.72,26.51l-3.36,71.27A25.73,25.73,0,0,1,197.22,192.43Z"/><path class="cls-4" d="M175.11,147.48a9.69,9.69,0,0,1,.41-2.77,27.78,27.78,0,0,0-4.55,8,40.07,40.07,0,0,0,8,2.46A9.67,9.67,0,0,1,175.11,147.48Z"/><path class="cls-4" d="M200.86,146.81a30.89,30.89,0,0,0-9.47-6.44,9.67,9.67,0,0,1,.16,14.07A18,18,0,0,0,200.86,146.81Z"/><path class="cls-5" d="M194.5,147.48a9.66,9.66,0,0,0-3.11-7.11c-7.39-2.94-12.58.39-15.88,4.33a9.67,9.67,0,0,0,3.42,10.48,23.24,23.24,0,0,0,12.62-.75A9.66,9.66,0,0,0,194.5,147.48Z"/><path class="cls-4" d="M130.06,147.48a9.69,9.69,0,0,0-.41-2.77,27.78,27.78,0,0,1,4.55,8,40.07,40.07,0,0,1-8,2.46A9.67,9.67,0,0,0,130.06,147.48Z"/><path class="cls-4" d="M104.31,146.81a30.89,30.89,0,0,1,9.47-6.44,9.67,9.67,0,0,0-.16,14.07A18,18,0,0,1,104.31,146.81Z"/><path class="cls-5" d="M110.66,147.48a9.66,9.66,0,0,1,3.11-7.11c7.39-2.94,12.58.39,15.88,4.33a9.67,9.67,0,0,1-3.42,10.48,23.24,23.24,0,0,1-12.62-.75A9.66,9.66,0,0,1,110.66,147.48Z"/><rect class="cls-5" x="172.76" y="121.48" width="28.09" height="10.03"/><path class="cls-6" d="M152.07,194.56c27.29,0,37.42-12.21,41.12-20H111C114.65,182.35,124.79,194.56,152.07,194.56Z"/><path class="cls-4" d="M191.83,168.18H112.32a2.66,2.66,0,0,0-2.53,3.51,27.47,27.47,0,0,0,1.17,2.86h82.23a27.47,27.47,0,0,0,1.17-2.86A2.66,2.66,0,0,0,191.83,168.18Z"/><rect class="cls-5" x="104.31" y="121.48" width="28.09" height="10.03"/><path class="cls-7" d="M126,186.84a26.93,26.93,0,0,1,24.26-6.71s11.43-5.8,29.09,6.05c0,0-9.5,5.72-26,5.72S126,186.84,126,186.84Z"/><circle class="cls-8" cx="188.26" cy="142.79" r="1.92"/><circle class="cls-8" cx="117.08" cy="142.79" r="1.92"/><ellipse class="cls-1" cx="121.53" cy="155.7" rx="18.76" ry="3.74"/><ellipse class="cls-1" cx="182.76" cy="155.7" rx="18.76" ry="3.74"/><rect class="cls-1" x="242.88" y="166.66" width="12.04" height="60.78" rx="3.73" ry="3.73" transform="translate(-24.37 35.49) rotate(-7.78)"/><path class="cls-1" d="M225.11,137.32l5,21.61a3,3,0,0,1-2.79,3.56l-5.53.57a2.94,2.94,0,0,0-2.44,4.38l2.75,4.43a3.14,3.14,0,0,0,3,1.4l8.18-.73,18.14-2.48a3.09,3.09,0,0,0,2.73-2.73l2.65-34a3,3,0,0,0-3.52-3l-25.42,3.47A3,3,0,0,0,225.11,137.32Z"/><rect class="cls-1" x="191.81" y="221.6" width="60.78" height="11.15" rx="5.57" ry="5.57" transform="translate(-40.6 48.52) rotate(-11.43)"/><rect class="cls-2" x="192.19" y="225.42" width="22.14" height="11.15" transform="translate(-41.73 44.84) rotate(-11.43)"/><rect class="cls-1" x="84.39" y="276.47" width="11.15" height="60.78" rx="2.67" ry="2.67" transform="translate(-45.91 17.38) rotate(-8.8)"/><path class="cls-1" d="M114.4,367l-5.2-21.54a2.91,2.91,0,0,1,2.48-3.57l5.11-.6a2.91,2.91,0,0,0,2.14-4.39l-2.67-4.41a2.91,2.91,0,0,0-2.78-1.38l-7.56.79-16.74,2.59a2.91,2.91,0,0,0-2.46,2.74l-1.5,34a2.91,2.91,0,0,0,3.35,3L112,370.53A2.91,2.91,0,0,0,114.4,367Z"/><rect class="cls-1" x="68.08" y="250.32" width="60.78" height="11.15" rx="4.81" ry="4.81" transform="translate(-174.32 228.29) rotate(-63.18)"/><rect class="cls-2" x="96.12" y="233.08" width="22.14" height="11.15" rx="4.81" ry="4.81" transform="translate(-154.15 226.61) rotate(-63.18)"/><path class="cls-9" d="M185.09,336.5,208,405.7c.6,1.82-1,3.64-3.36,3.79l-43,2.73c-2.06.13-3.87-1.08-4.07-2.73l-8.25-69.07c-.19-1.63,1.27-3.08,3.3-3.29L181,334.28A3.85,3.85,0,0,1,185.09,336.5Z"/><path class="cls-9" d="M121,336.65,98.13,405.51c-.64,1.93,1.06,3.85,3.55,4l42.56,2.7c2.18.14,4.09-1.14,4.3-2.88l8.21-68.74c.21-1.72-1.34-3.26-3.48-3.47l-27.94-2.82A4.07,4.07,0,0,0,121,336.65Z"/><polygon class="cls-1" points="192.61 496.28 178.22 497.56 173 426.35 186.51 426.35 192.61 496.28"/><path class="cls-2" d="M172.83,521.76H229s12.4-25.32-46.19-27.7C167.32,493.43,172.83,521.76,172.83,521.76Z"/><path class="cls-3" d="M230.34,521.76a2.59,2.59,0,0,0,2.49-3.32c-1.69-5.76-6.73-17.25-20.58-20-15.88-3.14-6.84,23.31-6.84,23.31Z"/><path class="cls-3" d="M175.42,496.47s1.66,6.56,11.73,4.52,9.15-6,9.15-6S178.07,491.34,175.42,496.47Z"/><polygon class="cls-3" points="204.17 517.41 172.36 517.41 172.83 521.76 205.4 521.76 204.17 517.41"/><path class="cls-2" d="M172.82,223.52c-1.49,7.64-10.21,13.5-20.74,13.5s-19.2-5.82-20.73-13.42l-21.89,2.53,13.08,114.64h60.66l13.08-114.64Z"/><path class="cls-1" d="M152.07,237c10.54,0,19.26-5.86,20.74-13.5l-20.74-2.32-20.73,2.4C132.88,231.2,141.57,237,152.07,237Z"/><rect class="cls-10" x="120.37" y="333.36" width="65.51" height="7.86" rx="2.81" ry="2.81"/><ellipse class="cls-11" cx="147.4" cy="99.01" rx="147.76" ry="15.35" transform="translate(-6.73 10.84) rotate(-4.12)"/><polygon class="cls-12" points="141.54 10.35 139.55 13.73 145.79 12.33 141.54 10.35"/><polygon class="cls-13" points="189.83 54.82 205.66 62.43 203.8 39.28 200.06 37.54 189.83 54.82"/><polygon class="cls-13" points="159.43 18.66 145.79 12.33 139.55 13.73 131.76 26.88 149.27 35.3 159.43 18.66"/><polygon class="cls-13" points="166.08 7.77 152.17 10.89 161.45 15.35 166.08 7.77"/><polygon class="cls-13" points="178.16 23.39 190.76 2.22 170.53 6.77 164.56 16.85 178.16 23.39"/><polygon class="cls-13" points="179.44 27.96 169.58 45.08 186.63 53.28 197.09 36.16 179.44 27.96"/><polygon class="cls-13" points="181.22 24.86 198.81 33.33 202.8 26.8 200.65 0 194.03 1.49 194.44 1.89 181.22 24.86"/><polygon class="cls-13" points="203.5 35.59 203.23 32.19 201.73 34.73 203.5 35.59"/><polygon class="cls-13" points="147.31 38.52 129.71 30.34 122.48 42.55 139.77 50.87 147.31 38.52"/><polygon class="cls-13" points="176.31 26.5 162.61 20.14 152.67 36.94 166.21 43.45 176.31 26.5"/><polygon class="cls-13" points="164.42 46.47 150.78 40.13 143.39 52.61 156.89 59.11 164.42 46.47"/><polygon class="cls-13" points="160.51 60.85 177.13 68.85 184.97 56.02 167.86 48.07 160.51 60.85"/><polygon class="cls-13" points="148.95 80.94 165.03 88.67 175.48 71.55 158.81 63.8 148.95 80.94"/><polygon class="cls-13" points="141.51 55.77 131.57 72.57 145.02 79.05 155.11 62.09 141.51 55.77"/><polygon class="cls-13" points="120.45 45.98 110.66 62.52 127.66 70.69 137.82 54.06 120.45 45.98"/><polygon class="cls-13" points="116.59 44.19 102.98 37.87 100.65 57.7 106.6 60.56 116.59 44.19"/><polygon class="cls-13" points="126.08 28.66 108.81 20.63 104.9 21.51 103.5 33.42 118.7 40.73 126.08 28.66"/><path class="cls-13" d="M207.12,80.69l-1.2-14.94-17.7-8.22-7.67,13,23.58,11.34-1.52,2.32L179,73.17,168.73,90.46l2,1-1.92,2.4-1.67-.78L164.86,97l-3.08-3,1.64-2.68-16.13-7.49-2,3.49H140.1L143.28,82l-13.55-6.29L123,87.08l-5.46.23,8.24-13.49-17.09-7.94L97.47,84.8l-.39,3.33C-3.43,98.21,0,109.63,0,109.63c216.4.22,294.77-21.22,294.77-21.22C282.89,75.7,207.12,80.69,207.12,80.69Z"/><polygon class="cls-13" points="134.5 14.86 115.61 19.11 128.21 25.17 134.5 14.86"/><polygon class="cls-13" points="100.15 61.92 98.82 73.31 104.53 63.95 100.15 61.92"/><polygon class="cls-11" points="167.86 48.07 184.97 56.02 186.63 53.28 169.58 45.08 167.86 48.07"/><polygon class="cls-11" points="128.21 25.17 115.61 19.11 108.81 20.63 126.08 28.66 128.21 25.17"/><polygon class="cls-11" points="188.23 57.53 205.92 65.75 205.66 62.43 189.83 54.82 188.23 57.53"/><polygon class="cls-11" points="164.42 46.47 166.21 43.45 152.67 36.94 150.78 40.13 164.42 46.47"/><polygon class="cls-11" points="147.31 38.52 149.27 35.3 131.76 26.88 129.71 30.34 147.31 38.52"/><polygon class="cls-11" points="143.39 52.61 141.51 55.77 155.11 62.09 156.89 59.11 143.39 52.61"/><polygon class="cls-11" points="139.77 50.87 122.48 42.55 120.45 45.98 137.82 54.06 139.77 50.87"/><polygon class="cls-11" points="118.7 40.73 103.5 33.42 102.98 37.87 116.59 44.19 118.7 40.73"/><polygon class="cls-11" points="158.81 63.8 175.48 71.55 177.13 68.85 160.51 60.85 158.81 63.8"/><polygon class="cls-11" points="131.57 72.57 129.74 75.67 143.28 81.96 145.02 79.05 131.57 72.57"/><polygon class="cls-11" points="106.6 60.56 100.65 57.7 100.15 61.92 104.53 63.95 106.6 60.56"/><polygon class="cls-11" points="110.66 62.52 108.67 65.88 125.76 73.82 127.66 70.69 110.66 62.52"/><polygon class="cls-11" points="200.06 37.54 203.8 39.28 203.5 35.59 201.73 34.73 200.06 37.54"/><polygon class="cls-11" points="197.09 36.16 198.81 33.33 181.22 24.86 179.44 27.96 197.09 36.16"/><polygon class="cls-11" points="159.43 18.66 161.45 15.35 152.17 10.89 145.79 12.33 159.43 18.66"/><polygon class="cls-11" points="176.31 26.5 178.16 23.39 164.56 16.85 162.61 20.14 176.31 26.5"/><polygon class="cls-11" points="143.39 52.61 150.78 40.13 147.31 38.52 139.77 50.87 143.39 52.61"/><polygon class="cls-11" points="137.82 54.06 127.66 70.69 131.57 72.57 141.51 55.77 137.82 54.06"/><polygon class="cls-11" points="164.56 16.85 170.53 6.77 166.08 7.77 161.45 15.35 164.56 16.85"/><polygon class="cls-11" points="152.67 36.94 162.61 20.14 159.43 18.66 149.27 35.3 152.67 36.94"/><polygon class="cls-11" points="152.67 36.94 149.27 35.3 147.31 38.52 150.78 40.13 152.67 36.94"/><polygon class="cls-11" points="139.77 50.87 137.82 54.06 141.51 55.77 143.39 52.61 139.77 50.87"/><polygon class="cls-11" points="127.66 70.69 125.76 73.82 129.74 75.67 131.57 72.57 127.66 70.69"/><polygon class="cls-11" points="164.56 16.85 161.45 15.35 159.43 18.66 162.61 20.14 164.56 16.85"/><polygon class="cls-11" points="169.58 45.08 179.44 27.96 176.31 26.5 166.21 43.45 169.58 45.08"/><polygon class="cls-11" points="156.89 59.11 160.51 60.85 167.86 48.07 164.42 46.47 156.89 59.11"/><polygon class="cls-11" points="181.22 24.86 194.44 1.89 194.03 1.49 190.76 2.22 178.16 23.39 181.22 24.86"/><polygon class="cls-11" points="155.11 62.09 145.02 79.05 148.95 80.94 158.81 63.8 155.11 62.09"/><polygon class="cls-11" points="164.42 46.47 167.86 48.07 169.58 45.08 166.21 43.45 164.42 46.47"/><polygon class="cls-11" points="155.11 62.09 158.81 63.8 160.51 60.85 156.89 59.11 155.11 62.09"/><polygon class="cls-11" points="145.02 79.05 143.28 81.96 147.29 83.82 148.95 80.94 145.02 79.05"/><polygon class="cls-11" points="179.44 27.96 181.22 24.86 178.16 23.39 176.31 26.5 179.44 27.96"/><polygon class="cls-11" points="201.73 34.73 203.23 32.19 202.8 26.8 198.81 33.33 201.73 34.73"/><polygon class="cls-11" points="186.63 53.28 189.83 54.82 200.06 37.54 197.09 36.16 186.63 53.28"/><polygon class="cls-11" points="177.13 68.85 180.55 70.49 188.23 57.53 184.97 56.02 177.13 68.85"/><polygon class="cls-11" points="186.63 53.28 184.97 56.02 188.23 57.53 189.83 54.82 186.63 53.28"/><polygon class="cls-11" points="175.48 71.55 178.97 73.17 180.55 70.49 177.13 68.85 175.48 71.55"/><polygon class="cls-11" points="200.06 37.54 201.73 34.73 198.81 33.33 197.09 36.16 200.06 37.54"/><polygon class="cls-11" points="129.71 30.34 126.08 28.66 118.7 40.73 122.48 42.55 129.71 30.34"/><polygon class="cls-11" points="120.45 45.98 116.59 44.19 106.6 60.56 110.66 62.52 120.45 45.98"/><polygon class="cls-11" points="104.53 63.95 98.82 73.31 97.47 84.8 108.67 65.88 104.53 63.95"/><polygon class="cls-11" points="131.76 26.88 139.55 13.73 134.5 14.86 128.21 25.17 131.76 26.88"/><polygon class="cls-11" points="131.76 26.88 128.21 25.17 126.08 28.66 129.71 30.34 131.76 26.88"/><polygon class="cls-11" points="122.48 42.55 118.7 40.73 116.59 44.19 120.45 45.98 122.48 42.55"/><polygon class="cls-11" points="106.6 60.56 104.53 63.95 108.67 65.88 110.66 62.52 106.6 60.56"/><path class="cls-12" d="M147.19,84l.4,0-.3-.14Z"/><path class="cls-12" d="M154.36,83.54,165,88.67l3.65-6C164.06,83,159.25,83.24,154.36,83.54Z"/><path class="cls-12" d="M173.48,82.44c8.91-.49,16.86-.89,22.88-1.18L179,73.17Z"/><path class="cls-11" d="M180.55,70.49,179,73.17l17.4,8.08,6-.29Z"/><path class="cls-11" d="M148.95,80.94l-1.66,2.88.3.14,6.77-.42Z"/><path class="cls-11" d="M125.76,73.82,118.29,86l5.56-.44,5.89-9.94Z"/><path class="cls-11" d="M143.28,82l-1.41,2.37,5.32-.34.1-.17Z"/><path class="cls-11" d="M175.48,71.55,168.67,82.7l4.81-.27L179,73.17Z"/><path class="cls-13" d="M71.08,91s110.81-13.7,157.76-11.21,0,.56,0,.56L232.71,90l-77.6,11.88Z"/></g></g></svg>