<?xml version="1.0" encoding="UTF-8" standalone="no"?>
<svg
   xmlns:dc="http://purl.org/dc/elements/1.1/"
   xmlns:cc="http://creativecommons.org/ns#"
   xmlns:rdf="http://www.w3.org/1999/02/22-rdf-syntax-ns#"
   xmlns:svg="http://www.w3.org/2000/svg"
   xmlns="http://www.w3.org/2000/svg"
   xmlns:sodipodi="http://sodipodi.sourceforge.net/DTD/sodipodi-0.dtd"
   xmlns:inkscape="http://www.inkscape.org/namespaces/inkscape"
   viewBox="0 0 148 148"
   id="vector"
   version="1.1"
   inkscape:version="0.91 r13725"
   sodipodi:docname="hand_left2.svg"
   width="148"
   height="148">
  <metadata
     id="metadata13">
    <rdf:RDF>
      <cc:Work
         rdf:about="">
        <dc:format>image/svg+xml</dc:format>
        <dc:type
           rdf:resource="http://purl.org/dc/dcmitype/StillImage" />
        <dc:title />
      </cc:Work>
    </rdf:RDF>
  </metadata>
  <defs
     id="defs11" />
  <sodipodi:namedview
     pagecolor="#ffffff"
     bordercolor="#666666"
     borderopacity="1"
     objecttolerance="10"
     gridtolerance="10"
     guidetolerance="10"
     inkscape:pageopacity="0"
     inkscape:pageshadow="2"
     inkscape:window-width="1920"
     inkscape:window-height="1017"
     id="namedview9"
     showgrid="false"
     inkscape:zoom="1.5945946"
     inkscape:cx="-154.5"
     inkscape:cy="74"
     inkscape:window-x="-8"
     inkscape:window-y="-8"
     inkscape:window-maximized="1"
     inkscape:current-layer="vector" />
  <g
     id="group" />
  <g
     id="layer_2"
     transform="matrix(0.99997171,0.00752266,-0.00752266,0.99997171,36.454084,-0.17142622)">
    <g
       id="ui">
      <path
         id="path"
         d="M 36.1,56.5 43,55.6 c 3.1,-0.4 6,1.8 6.4,4.9 l 11,80.8 c 0.4,3.1 -1.8,6 -4.9,6.4 l -6.9,0.9 c -3.1,0.4 -6,-1.8 -6.4,-4.9 L 31.2,63 c -0.4,-3.2 1.8,-6 4.9,-6.5 z"
         inkscape:connector-curvature="0"
         style="fill:#b5746f;stroke-width:1" />
      <path
         id="path_1"
         d="m 9.5,10.8 7.6,33 c 0.5,2.5 -1.2,4.9 -3.7,5.4 -0.2,0 -0.4,0.1 -0.6,0.1 l -8.5,0.9 c -3.5,0.4 -5.5,3.9 -3.7,6.7 l 4.2,6.8 c 1,1.5 2.7,2.3 4.5,2.1 l 12.5,-1.1 27.7,-3.8 c 2.2,-0.2 3.9,-2 4.2,-4.2 l 4,-52 C 57.8,2.2 55.8,0.1 53.3,0 53,0 52.6,0 52.3,0.1 L 13.6,5.4 c -2.5,0.2 -4.4,2.5 -4.1,5 l 0,0.4 z"
         inkscape:connector-curvature="0"
         style="fill:#efb44b;stroke-width:1" />
      <path
         id="path_2"
         d="m 21.5,62.4 34.6,-4.8 c 2,-0.3 3.9,1.1 4.2,3.2 l 1.5,10.7 c 0.3,2 -1.1,3.9 -3.2,4.2 L 24,80.5 c -2,0.3 -3.9,-1.1 -4.2,-3.2 L 18.3,66.6 c -0.3,-2 1.2,-3.9 3.2,-4.2 z"
         inkscape:connector-curvature="0"
         style="fill:#efb44b;stroke-width:1" />
    </g>
  </g>
</svg>
