<?xml version="1.0" encoding="UTF-8" standalone="no"?>
<svg
   xmlns:dc="http://purl.org/dc/elements/1.1/"
   xmlns:cc="http://creativecommons.org/ns#"
   xmlns:rdf="http://www.w3.org/1999/02/22-rdf-syntax-ns#"
   xmlns:svg="http://www.w3.org/2000/svg"
   xmlns="http://www.w3.org/2000/svg"
   xmlns:sodipodi="http://sodipodi.sourceforge.net/DTD/sodipodi-0.dtd"
   xmlns:inkscape="http://www.inkscape.org/namespaces/inkscape"
   viewBox="0 0 148 148"
   id="vector"
   version="1.1"
   inkscape:version="0.91 r13725"
   sodipodi:docname="hand_right1.svg"
   width="148"
   height="148">
  <metadata
     id="metadata12">
    <rdf:RDF>
      <cc:Work
         rdf:about="">
        <dc:format>image/svg+xml</dc:format>
        <dc:type
           rdf:resource="http://purl.org/dc/dcmitype/StillImage" />
        <dc:title></dc:title>
      </cc:Work>
    </rdf:RDF>
  </metadata>
  <defs
     id="defs10" />
  <sodipodi:namedview
     pagecolor="#ffffff"
     bordercolor="#666666"
     borderopacity="1"
     objecttolerance="10"
     gridtolerance="10"
     guidetolerance="10"
     inkscape:pageopacity="0"
     inkscape:pageshadow="2"
     inkscape:window-width="1920"
     inkscape:window-height="1017"
     id="namedview8"
     showgrid="false"
     inkscape:zoom="1.5945946"
     inkscape:cx="-53.40678"
     inkscape:cy="74"
     inkscape:window-x="-8"
     inkscape:window-y="-8"
     inkscape:window-maximized="1"
     inkscape:current-layer="vector" />
  <g
     id="group" />
  <g
     id="layer_2"
     transform="matrix(-0.99997293,0.00735725,-0.00735725,-0.99997293,114.38826,148.14517)">
    <g
       id="ui">
      <path
         id="path"
         d="m 36.121,56.532 6.945,-0.949 c 1.498,-0.204 3.016,0.194 4.219,1.109 1.204,0.914 1.996,2.269 2.2,3.767 l 11.036,80.77 c 0.426,3.119 -1.757,5.993 -4.876,6.419 l -6.946,0.949 c -3.119,0.426 -5.993,-1.757 -6.419,-4.876 L 31.245,62.951 c -0.205,-1.497 0.194,-3.015 1.108,-4.219 0.915,-1.204 2.27,-1.995 3.768,-2.2"
         inkscape:connector-curvature="0"
         style="fill:#b5746f;stroke-width:1" />
      <path
         id="path_1"
         d="m 9.5,10.77 7.59,33 c 0.24,1.3 -0.089,2.64 -0.904,3.68 -0.814,1.041 -2.037,1.682 -3.356,1.76 L 4.37,50.08 C 0.89,50.47 -1.09,54 0.63,56.82 l 4.21,6.77 c 0.986,1.511 2.736,2.342 4.53,2.15 l 12.5,-1.12 27.73,-3.79 c 2.198,-0.239 3.935,-1.973 4.18,-4.17 l 4,-52 C 57.834,3.284 57.263,1.957 56.225,1.052 55.188,0.147 53.796,-0.24 52.44,0 L 13.58,5.36 C 12.298,5.484 11.127,6.14 10.352,7.169 9.576,8.197 9.267,9.503 9.5,10.77 Z"
         inkscape:connector-curvature="0"
         style="fill:#b5746f;stroke-width:1" />
    </g>
  </g>
</svg>
