<?xml version="1.0" encoding="UTF-8" standalone="no"?>
<svg
   xmlns:dc="http://purl.org/dc/elements/1.1/"
   xmlns:cc="http://creativecommons.org/ns#"
   xmlns:rdf="http://www.w3.org/1999/02/22-rdf-syntax-ns#"
   xmlns:svg="http://www.w3.org/2000/svg"
   xmlns="http://www.w3.org/2000/svg"
   xmlns:sodipodi="http://sodipodi.sourceforge.net/DTD/sodipodi-0.dtd"
   xmlns:inkscape="http://www.inkscape.org/namespaces/inkscape"
   viewBox="0 0 450 450"
   id="vector"
   version="1.1"
   inkscape:version="0.91 r13725"
   sodipodi:docname="hat1.svg"
   width="450"
   height="450">
  <metadata
     id="metadata25">
    <rdf:RDF>
      <cc:Work
         rdf:about="">
        <dc:format>image/svg+xml</dc:format>
        <dc:type
           rdf:resource="http://purl.org/dc/dcmitype/StillImage" />
        <dc:title></dc:title>
      </cc:Work>
    </rdf:RDF>
  </metadata>
  <defs
     id="defs23" />
  <sodipodi:namedview
     pagecolor="#ffffff"
     bordercolor="#666666"
     borderopacity="1"
     objecttolerance="10"
     gridtolerance="10"
     guidetolerance="10"
     inkscape:pageopacity="0"
     inkscape:pageshadow="2"
     inkscape:window-width="1920"
     inkscape:window-height="1017"
     id="namedview21"
     showgrid="false"
     inkscape:zoom="0.67777778"
     inkscape:cx="28.770492"
     inkscape:cy="89.5"
     inkscape:window-x="-8"
     inkscape:window-y="-8"
     inkscape:window-maximized="1"
     inkscape:current-layer="vector" />
  <g
     id="group"
     transform="translate(0,271)" />
  <g
     id="layer_2"
     transform="translate(0,139)">
    <g
       id="ui">
      <path
         id="path"
         d="M 223.658,127.97 C 99.214,136.934 -0.913,154.677 0.017,167.6 c 0.931,12.923 102.568,16.132 227.012,7.168 124.444,-8.963 224.572,-26.706 223.641,-39.63 -0.931,-12.923 -102.568,-16.132 -227.012,-7.168 z"
         inkscape:connector-curvature="0"
         style="fill:#ffca5f;stroke-width:1" />
      <path
         id="path_1"
         d="m 216.39,15.83 -3.05,5.16 9.54,-2.15 -6.49,-3.01 z"
         inkscape:connector-curvature="0"
         style="fill:none;stroke-width:1" />
      <path
         id="path_2"
         d="m 290.22,83.81 24.19,11.64 -2.84,-35.4 -5.71,-2.66 -15.64,26.42 z m -46.48,-55.28 -20.86,-9.69 -9.54,2.15 -11.9,20.1 26.77,12.88 15.53,-25.44 z m 10.17,-16.66 -21.26,4.78 14.18,6.82 7.08,-11.6 z m 18.46,23.89 19.27,-32.36 -30.93,6.95 -9.13,15.41 20.79,10 z m 1.95,6.98 -15.06,26.17 26.07,12.55 15.98,-26.18 -26.99,-12.54 z m 2.73,-4.73 26.9,12.95 6.09,-9.98 -3.28,-40.98 -10.12,2.27 0.62,0.61 -20.21,35.13 z m 34.07,16.4 -0.42,-5.2 -2.3,3.89 2.72,1.31 z m -85.92,4.48 -26.9,-12.5 -11.05,18.66 26.43,12.72 11.52,-18.88 z m 44.34,-18.37 -20.94,-9.73 -15.2,25.68 20.71,9.96 15.43,-25.91 z m -18.18,30.52 -20.85,-9.69 -11.29,19.08 20.64,9.93 11.5,-19.32 z m -5.97,21.98 25.42,12.23 11.97,-19.61 -26.15,-12.15 -11.24,19.53 z m -17.68,30.71 24.59,11.83 15.98,-26.17 -25.5,-11.84 -15.07,26.18 z m -11.36,-38.46 -15.21,25.68 20.57,9.9 15.43,-25.93 -20.79,-9.65 z M 184.14,70.3 169.18,95.57 195.17,108.08 210.7,82.64 184.14,70.3 Z m -5.89,-2.74 -20.81,-9.66 -3.56,30.31 9.09,4.38 15.28,-25.03 z m 14.5,-23.75 -26.4,-12.26 -5.98,1.34 -2.13,18.2 23.24,11.18 11.27,-18.46 z"
         inkscape:connector-curvature="0"
         style="fill:#ffeb76;stroke-width:1" />
      <path
         id="path_3"
         d="M 316.65,123.36 314.82,100.52 287.77,88 276,107.77 l 36,17.34 -2.32,3.55 -36.14,-16.79 -15.54,26.42 3.12,1.5 -2.93,3.67 -2.55,-1.19 -3.56,6 -4.71,-4.59 2.5,-4.1 -24.66,-11.46 -3.07,5.34 -7.92,0 4.87,-8.18 -20.71,-9.62 -10.38,17.47 -8.35,0.35 12.59,-20.63 -26.12,-12.14 -17.12,28.93 -0.6,5.1 C -5.24,150.14 0,167.6 0,167.6 c 330.83,0.34 450.65,-32.45 450.65,-32.45 -18.17,-19.42 -134,-11.79 -134,-11.79 z M 205.63,22.72 176.74,29.21 196,38.48 205.63,22.72 Z"
         inkscape:connector-curvature="0"
         style="fill:#ffeb76;stroke-width:1" />
      <path
         id="path_4"
         d="m 153.12,94.67 -2.05,17.41 8.73,-14.3 -6.68,-3.11 z"
         inkscape:connector-curvature="0"
         style="fill:#ffeb76;stroke-width:1" />
      <path
         id="path_5"
         d="m 256.63,73.49 26.15,12.15 2.55,-4.18 -26.07,-12.55 -2.63,4.58 z M 196,38.48 l -19.26,-9.27 -10.39,2.34 26.4,12.26 3.25,-5.33 z m 91.77,49.47 27.05,12.57 -0.41,-5.07 -24.19,-11.64 -2.45,4.14 z m -36.41,-16.91 2.75,-4.61 -20.71,-9.96 -2.89,4.88 20.85,9.69 z m -26.16,-12.15 3.01,-4.92 -26.77,-12.88 -3.14,5.3 26.9,12.5 z m -5.98,21.54 -2.87,4.84 20.79,9.65 2.72,-4.56 -20.64,-9.93 z m -5.54,-2.66 -26.43,-12.72 -3.11,5.25 26.56,12.34 2.98,-4.87 z m -32.2,-15.5 -23.24,-11.18 -0.8,6.81 20.81,9.66 3.23,-5.29 z m 61.3,35.28 25.5,11.84 2.53,-4.14 -25.42,-12.23 -2.61,4.53 z m -41.64,13.4 -2.8,4.73 20.72,9.62 2.65,-4.45 -20.57,-9.9 z m -38.17,-18.36 -9.09,-4.38 -0.76,6.46 6.68,3.11 3.17,-5.19 z m 6.21,2.98 -3.05,5.15 26.13,12.13 2.91,-4.77 -25.99,-12.51 z m 136.68,-38.18 5.71,2.66 -0.45,-5.64 -2.72,-1.31 -2.54,4.29 z m -4.55,-2.11 2.64,-4.32 -26.9,-12.95 -2.73,4.73 26.99,12.54 z m -57.57,-26.75 3.09,-5.06 -14.18,-6.82 -9.77,2.19 20.86,9.69 z m 25.8,11.99 2.83,-4.76 -20.79,-10 -2.98,5.03 20.94,9.73 z"
         inkscape:connector-curvature="0"
         style="fill:#ffca5f;stroke-width:1" />
      <path
         id="path_6"
         d="m 219.22,80.43 11.29,-19.08 -5.31,-2.46 -11.52,18.88 5.54,2.66 z m -8.52,2.21 -15.53,25.44 5.97,2.87 15.21,-25.68 -5.65,-2.63 z m 40.88,-56.88 9.13,-15.41 -6.8,1.52 -7.08,11.6 4.75,2.29 z m -18.18,30.71 15.2,-25.68 -4.86,-2.26 -15.53,25.44 5.19,2.5 z"
         inkscape:connector-curvature="0"
         style="fill:#ffca5f;stroke-width:1" />
      <path
         id="path_7"
         d="m 233.4,56.47 -5.19,-2.5 -3.01,4.92 5.31,2.46 2.89,-4.88 z m -19.72,21.3 -2.98,4.87 5.65,2.63 2.87,-4.84 -5.54,-2.66 z m -18.51,30.31 -2.91,4.77 6.08,2.83 2.8,-4.73 -5.97,-2.87 z m 56.41,-82.32 -4.75,-2.29 -3.09,5.06 4.86,2.26 2.98,-5.03 z m 7.68,43.15 15.06,-26.17 -4.78,-2.22 -15.43,25.91 5.15,2.48 z m -19.4,21.45 5.53,2.66 11.24,-19.53 -5.27,-2.45 -11.5,19.32 z m 37.19,-52.35 20.21,-35.13 -0.62,-0.61 -5,1.13 -19.27,32.36 4.68,2.25 z m -39.91,56.91 -15.43,25.93 6,2.88 15.07,-26.18 -5.64,-2.63 z"
         inkscape:connector-curvature="0"
         style="fill:#ffca5f;stroke-width:1" />
      <path
         id="path_8"
         d="m 251.36,71.04 5.27,2.45 2.63,-4.58 -5.15,-2.48 -2.75,4.61 z m -14.22,23.88 5.64,2.63 2.61,-4.53 -5.53,-2.66 -2.72,4.56 z m -15.43,25.93 -2.65,4.45 6.12,2.84 2.53,-4.41 -6,-2.88 z m 52.61,-78.11 2.73,-4.73 -4.68,-2.25 -2.83,4.76 4.78,2.22 z m 34.08,10.36 2.3,-3.89 -0.66,-8.23 -6.09,9.98 4.45,2.14 z m -23.07,28.36 4.89,2.35 15.64,-26.42 -4.55,-2.11 -15.98,26.18 z m -14.52,23.79 5.22,2.52 11.74,-19.82 -4.99,-2.31 -11.97,19.61 z"
         inkscape:connector-curvature="0"
         style="fill:#ffca5f;stroke-width:1" />
      <path
         id="path_9"
         d="m 285.33,81.46 -2.55,4.18 4.99,2.31 2.45,-4.14 -4.89,-2.35 z m -17.05,27.93 5.33,2.48 2.42,-4.1 -5.22,-2.52 -2.53,4.14 z m 37.58,-52 2.54,-4.29 -4.45,-2.14 -2.64,4.32 4.55,2.11 z m -107.56,-11 -5.55,-2.58 -11.27,18.46 5.77,2.78 11.05,-18.66 z m -14.16,23.91 -5.89,-2.74 -15.28,25.03 6.21,2.98 14.96,-25.27 z m -24.34,27.48 -8.73,14.3 -2.06,17.56 17.12,-28.92 -6.33,-2.94 z m 41.64,-56.69 11.9,-20.1 -7.71,1.73 -9.63,15.76 5.44,2.61 z"
         inkscape:connector-curvature="0"
         style="fill:#ffca5f;stroke-width:1" />
      <path
         id="path_10"
         d="m 201.44,41.09 -5.44,-2.61 -3.25,5.33 5.55,2.58 3.14,-5.3 z m -14.19,23.96 -5.77,-2.78 -3.23,5.29 5.89,2.74 3.11,-5.25 z m -24.28,27.54 -3.17,5.19 6.33,2.94 3.05,-5.15 -6.21,-2.98 z"
         inkscape:connector-curvature="0"
         style="fill:#ffca5f;stroke-width:1" />
      <path
         id="path_11"
         d="m 225,128.4 0.61,0 -0.46,-0.22 z m 11,-0.68 16.31,7.85 5.57,-9.13 c -7.06,0.39 -14.41,0.82 -21.88,1.28 z M 265.22,126 c 13.62,-0.75 25.77,-1.36 35,-1.81 l -26.59,-12.35 z"
         inkscape:connector-curvature="0"
         style="fill:none;stroke-width:1" />
      <path
         id="path_12"
         d="m 276,107.77 -2.43,4.1 26.59,12.35 9.12,-0.44 z m -48.29,15.97 -2.54,4.41 0.46,0.22 10.35,-0.64 z m -35.45,-10.89 -11.42,18.7 8.5,-0.67 9,-15.2 z"
         inkscape:connector-curvature="0"
         style="fill:#ffca5f;stroke-width:1" />
      <path
         id="path_13"
         d="m 219.06,125.3 -2.16,3.62 8.13,-0.53 0.15,-0.25 z m 49.22,-15.91 -10.41,17 7.35,-0.41 8.39,-14.16 z"
         inkscape:connector-curvature="0"
         style="fill:#ffca5f;stroke-width:1" />
      <path
         id="path_14"
         d="M 108.66,139.18 C 278.08,118.24 278.08,118.24 349.85,122 c 71.77,3.76 0,0.85 0,0.85 l 5.92,14.64 -118.63,18.22 z"
         inkscape:connector-curvature="0"
         style="fill:#ffeb76;stroke-width:1" />
    </g>
  </g>
</svg>
