<?xml version="1.0" encoding="UTF-8" standalone="no"?>
<svg
   xmlns:dc="http://purl.org/dc/elements/1.1/"
   xmlns:cc="http://creativecommons.org/ns#"
   xmlns:rdf="http://www.w3.org/1999/02/22-rdf-syntax-ns#"
   xmlns:svg="http://www.w3.org/2000/svg"
   xmlns="http://www.w3.org/2000/svg"
   xmlns:sodipodi="http://sodipodi.sourceforge.net/DTD/sodipodi-0.dtd"
   xmlns:inkscape="http://www.inkscape.org/namespaces/inkscape"
   viewBox="0 0 264 264"
   id="vector"
   version="1.1"
   inkscape:version="0.91 r13725"
   sodipodi:docname="hat2.svg"
   width="264"
   height="264">
  <metadata
     id="metadata14">
    <rdf:RDF>
      <cc:Work
         rdf:about="">
        <dc:format>image/svg+xml</dc:format>
        <dc:type
           rdf:resource="http://purl.org/dc/dcmitype/StillImage" />
        <dc:title></dc:title>
      </cc:Work>
    </rdf:RDF>
  </metadata>
  <defs
     id="defs12" />
  <sodipodi:namedview
     pagecolor="#ffffff"
     bordercolor="#666666"
     borderopacity="1"
     objecttolerance="10"
     gridtolerance="10"
     guidetolerance="10"
     inkscape:pageopacity="0"
     inkscape:pageshadow="2"
     inkscape:window-width="1920"
     inkscape:window-height="1017"
     id="namedview10"
     showgrid="false"
     inkscape:zoom="1.155303"
     inkscape:cx="16.878689"
     inkscape:cy="51"
     inkscape:window-x="-8"
     inkscape:window-y="-8"
     inkscape:window-maximized="1"
     inkscape:current-layer="vector" />
  <g
     id="layer_1"
     transform="matrix(0.92902996,0,0,1,8.2316018,84)">
    <g
       id="group" />
    <g
       id="layer_2">
      <g
         id="ui">
        <path
           id="path"
           d="m 54.4,2 8.3,-1.8 c 3.6,-0.8 7.1,1.5 7.9,5.1 l 0.3,1.2 c 0.8,3.6 -1.5,7.1 -5.1,7.9 l -8.3,1.8 C 53.9,17 50.4,14.7 49.6,11.1 L 49.3,9.9 C 48.6,6.3 50.9,2.7 54.4,2 Z"
           inkscape:connector-curvature="0"
           style="fill:#ffca5f;stroke-width:1" />
        <path
           id="path_1"
           d="M 0.7,94.1 C -13.4,15 -13.4,15 85.2,3.8 183.8,-7.4 193.7,77 193.7,77 c 0,0 -103.5,21.4 -193,17.1 z"
           inkscape:connector-curvature="0"
           style="fill:#fff3f0;stroke-width:1" />
        <path
           id="path_2"
           d="m 190.7,64.8 c 94.6,-9.4 94.6,-9.4 70.1,11 -24.5,20.4 -114.9,37.6 -231,18.2 0,0 163.2,-15 160.9,-29.2 z"
           inkscape:connector-curvature="0"
           style="fill:#ffca5f;stroke-width:1" />
      </g>
    </g>
  </g>
</svg>
