<?xml version="1.0" encoding="UTF-8" standalone="no"?>
<svg
   xmlns:dc="http://purl.org/dc/elements/1.1/"
   xmlns:cc="http://creativecommons.org/ns#"
   xmlns:rdf="http://www.w3.org/1999/02/22-rdf-syntax-ns#"
   xmlns:svg="http://www.w3.org/2000/svg"
   xmlns="http://www.w3.org/2000/svg"
   xmlns:sodipodi="http://sodipodi.sourceforge.net/DTD/sodipodi-0.dtd"
   xmlns:inkscape="http://www.inkscape.org/namespaces/inkscape"
   viewBox="0 0 256 256"
   id="vector"
   version="1.1"
   inkscape:version="0.91 r13725"
   sodipodi:docname="item_face1.svg"
   width="256"
   height="256">
  <metadata
     id="metadata21">
    <rdf:RDF>
      <cc:Work
         rdf:about="">
        <dc:format>image/svg+xml</dc:format>
        <dc:type
           rdf:resource="http://purl.org/dc/dcmitype/StillImage" />
        <dc:title></dc:title>
      </cc:Work>
    </rdf:RDF>
  </metadata>
  <defs
     id="defs19" />
  <sodipodi:namedview
     pagecolor="#ffffff"
     bordercolor="#666666"
     borderopacity="1"
     objecttolerance="10"
     gridtolerance="10"
     guidetolerance="10"
     inkscape:pageopacity="0"
     inkscape:pageshadow="2"
     inkscape:window-width="1920"
     inkscape:window-height="1017"
     id="namedview17"
     showgrid="false"
     inkscape:zoom="1.0875576"
     inkscape:cx="-31.292373"
     inkscape:cy="108.5"
     inkscape:window-x="-8"
     inkscape:window-y="-8"
     inkscape:window-maximized="1"
     inkscape:current-layer="vector" />
  <g
     id="group"
     transform="translate(0,39)" />
  <g
     id="layer_2"
     transform="translate(36.779661,22.449153)">
    <g
       id="ui">
      <path
         id="path"
         d="m 159,181.5 -47.14,29.93 c -12.866,8.168 -29.294,8.168 -42.16,0 l -47,-29.87 C 11.622,174.548 4.767,162.476 4.42,149.37 L 0,40.36 C -0.278,29.752 3.743,19.481 11.149,11.881 18.555,4.281 28.718,-0.004 39.33,0 l 103.73,0 c 10.641,-0.002 20.828,4.307 28.237,11.944 7.409,7.637 11.408,17.95 11.083,28.586 l -5.13,109 c -0.413,13.022 -7.247,24.994 -18.25,31.97 z"
         inkscape:connector-curvature="0"
         style="fill:#b5746f;stroke-width:1" />
      <path
         id="path_1"
         d="m 125.21,112.77 c 0,-1.436 0.209,-2.864 0.62,-4.24 -3.002,3.671 -5.368,7.818 -7,12.27 3.921,1.674 8.007,2.934 12.19,3.76 -3.672,-2.806 -5.822,-7.168 -5.81,-11.79 z m 39.37,-1.02 c -5.34,-5 -10.15,-8.12 -14.48,-9.84 2.989,2.759 4.71,6.628 4.758,10.696 0.047,4.068 -1.584,7.976 -4.508,10.804 5.943,-2.134 10.969,-6.252 14.23,-11.66 z"
         inkscape:connector-curvature="0"
         style="fill:#ffffff;stroke-width:1" />
      <path
         id="path_2"
         d="m 154.86,112.77 c 0.003,-4.129 -1.724,-8.071 -4.76,-10.87 -11.3,-4.49 -19.23,0.6 -24.27,6.63 -1.761,5.902 0.323,12.277 5.23,16 8,1.52 14.37,0.68 19.29,-1.15 2.879,-2.78 4.506,-6.608 4.51,-10.61 z"
         inkscape:connector-curvature="0"
         style="fill:#683330;stroke-width:1" />
      <path
         id="path_3"
         d="m 56.34,112.77 c 0,-1.436 -0.209,-2.864 -0.62,-4.24 3.002,3.671 5.368,7.818 7,12.27 -3.921,1.674 -8.007,2.934 -12.19,3.76 3.672,-2.806 5.822,-7.168 5.81,-11.79 z M 17,111.75 c 5.34,-5 10.15,-8.12 14.48,-9.84 -2.989,2.759 -4.71,6.628 -4.758,10.696 -0.047,4.068 1.584,7.976 4.508,10.804 C 25.287,121.276 20.261,117.158 17,111.75 Z"
         inkscape:connector-curvature="0"
         style="fill:#ffffff;stroke-width:1" />
      <path
         id="path_4"
         d="m 26.69,112.77 c -0.003,-4.129 1.724,-8.071 4.76,-10.87 11.3,-4.49 19.23,0.6 24.27,6.63 1.761,5.902 -0.323,12.277 -5.23,16 -8,1.52 -14.37,0.68 -19.29,-1.15 -2.879,-2.78 -4.506,-6.608 -4.51,-10.61 z m 94.94,-39.75 42.95,0 0,15.34 -42.95,0 z"
         inkscape:connector-curvature="0"
         style="fill:#683330;stroke-width:1" />
      <path
         id="path_5"
         d="m 90,184.75 c 41.72,0 57.21,-18.66 62.86,-30.6 l -125.73,0 c 5.65,11.94 21.15,30.6 62.87,30.6 z"
         inkscape:connector-curvature="0"
         style="fill:#6d2e2e;stroke-width:1" />
      <path
         id="path_6"
         d="m 150.78,144.42 -121.57,0 c -1.309,0 -2.538,0.629 -3.303,1.692 -0.764,1.062 -0.972,2.427 -0.557,3.668 0.511,1.489 1.105,2.948 1.78,4.37 l 125.73,0 c 0.675,-1.422 1.269,-2.881 1.78,-4.37 0.415,-1.241 0.207,-2.606 -0.557,-3.668 -0.765,-1.063 -1.994,-1.692 -3.303,-1.692 z"
         inkscape:connector-curvature="0"
         style="fill:#ffffff;stroke-width:1" />
      <path
         id="path_7"
         d="m 16.97,73.02 42.95,0 0,15.34 -42.95,0 z"
         inkscape:connector-curvature="0"
         style="fill:#683330;stroke-width:1" />
      <path
         id="path_8"
         d="m 50.12,173 c 14.6,-15.27 14.6,-15.27 37.09,-10.25 0,0 17.48,-8.87 44.47,9.25 0,0 -14.52,8.74 -39.78,8.74 -25.26,0 -41.78,-7.74 -41.78,-7.74 z"
         inkscape:connector-curvature="0"
         style="fill:#ad5050;stroke-width:1" />
      <path
         id="path_9"
         d="m 145.31,102.67 c -1.047,0 -2.014,0.558 -2.537,1.465 -0.524,0.907 -0.524,2.023 0,2.93 0.523,0.907 1.49,1.465 2.537,1.465 1.047,0 2.014,-0.558 2.537,-1.465 0.524,-0.907 0.524,-2.023 0,-2.93 -0.523,-0.907 -1.49,-1.465 -2.537,-1.465 z m -108.82,0 c -1.047,0 -2.014,0.558 -2.537,1.465 -0.524,0.907 -0.524,2.023 0,2.93 0.523,0.907 1.49,1.465 2.537,1.465 1.047,0 2.014,-0.558 2.537,-1.465 0.524,-0.907 0.524,-2.023 0,-2.93 -0.523,-0.907 -1.49,-1.465 -2.537,-1.465 z"
         inkscape:connector-curvature="0"
         style="fill:#ffffff;stroke-width:1" />
      <path
         id="path_10"
         d="m 43.31,119.63 c -10.246,0 -19.714,1.09 -24.838,2.86 -5.123,1.77 -5.123,3.95 0,5.72 5.124,1.77 14.592,2.86 24.838,2.86 10.246,0 19.714,-1.09 24.838,-2.86 5.123,-1.77 5.123,-3.95 0,-5.72 -5.124,-1.77 -14.592,-2.86 -24.838,-2.86 z m 93.59,0 c -10.246,0 -19.714,1.09 -24.838,2.86 -5.123,1.77 -5.123,3.95 0,5.72 5.124,1.77 14.592,2.86 24.838,2.86 10.246,0 19.714,-1.09 24.838,-2.86 5.123,-1.77 5.123,-3.95 0,-5.72 -5.124,-1.77 -14.592,-2.86 -24.838,-2.86 z"
         inkscape:connector-curvature="0"
         style="fill:#b5746f;stroke-width:1" />
    </g>
  </g>
</svg>
