<?xml version="1.0" encoding="UTF-8" standalone="no"?>
<svg
   xmlns:dc="http://purl.org/dc/elements/1.1/"
   xmlns:cc="http://creativecommons.org/ns#"
   xmlns:rdf="http://www.w3.org/1999/02/22-rdf-syntax-ns#"
   xmlns:svg="http://www.w3.org/2000/svg"
   xmlns="http://www.w3.org/2000/svg"
   xmlns:sodipodi="http://sodipodi.sourceforge.net/DTD/sodipodi-0.dtd"
   xmlns:inkscape="http://www.inkscape.org/namespaces/inkscape"
   viewBox="0 0 256 256"
   id="vector"
   version="1.1"
   inkscape:version="0.91 r13725"
   sodipodi:docname="item_face2.svg"
   width="256"
   height="256">
  <metadata
     id="metadata23">
    <rdf:RDF>
      <cc:Work
         rdf:about="">
        <dc:format>image/svg+xml</dc:format>
        <dc:type
           rdf:resource="http://purl.org/dc/dcmitype/StillImage" />
        <dc:title></dc:title>
      </cc:Work>
    </rdf:RDF>
  </metadata>
  <defs
     id="defs21" />
  <sodipodi:namedview
     pagecolor="#ffffff"
     bordercolor="#666666"
     borderopacity="1"
     objecttolerance="10"
     gridtolerance="10"
     guidetolerance="10"
     inkscape:pageopacity="0"
     inkscape:pageshadow="2"
     inkscape:window-width="1920"
     inkscape:window-height="1017"
     id="namedview19"
     showgrid="false"
     inkscape:zoom="1.1291866"
     inkscape:cx="-26.783898"
     inkscape:cy="104.5"
     inkscape:window-x="-8"
     inkscape:window-y="-8"
     inkscape:window-maximized="1"
     inkscape:current-layer="vector" />
  <g
     id="layer_1"
     transform="translate(37.194915,28.402542)">
    <g
       id="group" />
    <g
       id="layer_2">
      <g
         id="ui">
        <path
           id="path"
           d="M 71.6,203.6 C 58.2,195.1 45.6,185.4 34,174.7 24.8,166 18.6,154.6 16.6,142.1 L 0,40.4 C -0.6,18.6 16.6,0.6 38.3,0 L 143,0 c 21.7,0 39.3,17.6 39.3,39.3 l 0,1.2 -17.1,101.3 c -2.2,13 -8.5,25.1 -18,34.3 -11,10.6 -23.2,20 -36.2,27.9 -12.1,7.4 -27.4,7.2 -39.4,-0.4 z"
           inkscape:connector-curvature="0"
           style="fill:#b5746f;stroke-width:1" />
        <path
           id="path_1"
           d="m 114.9,114.7 c -0.2,-1.4 -0.3,-2.9 -0.1,-4.3 -2.4,4.1 -4,8.6 -4.9,13.2 4.1,1 8.4,1.6 12.6,1.7 -4,-2.1 -6.9,-6 -7.6,-10.6 z m 38.7,-7.4 c -6.1,-4.1 -11.3,-6.4 -15.9,-7.4 6.8,4.5 8.7,13.7 4.2,20.5 -0.2,0.2 -0.3,0.5 -0.5,0.7 5.6,-3 9.8,-7.9 12.2,-13.8 z"
           inkscape:connector-curvature="0"
           style="fill:#ffffff;stroke-width:1" />
        <path
           id="path_2"
           d="m 144.2,109.9 c -0.7,-4.1 -3,-7.7 -6.5,-10 -11.9,-2.6 -18.9,3.7 -22.9,10.5 -0.8,6.1 2.3,12.1 7.8,15 8.1,0.2 14.3,-1.7 18.9,-4.3 2.3,-3.2 3.3,-7.2 2.7,-11.2 z m -32.6,-31.3 43,0 0,7.7 -43,0 z m -84.6,0 42.9,0 0,7.7 -42.9,0 z"
           inkscape:connector-curvature="0"
           style="fill:#56342c;stroke-width:1" />
        <path
           id="path_3"
           d="m 134.325,104.442 c -1.022,0.167 -1.877,0.868 -2.243,1.837 -0.366,0.969 -0.187,2.06 0.47,2.862 0.656,0.801 1.69,1.192 2.713,1.024 1.022,-0.168 1.877,-0.868 2.243,-1.838 0.366,-0.969 0.187,-2.06 -0.469,-2.861 -0.657,-0.802 -1.691,-1.192 -2.714,-1.024 z"
           inkscape:connector-curvature="0"
           style="fill:#ffffff;stroke-width:1" />
        <path
           id="path_4"
           d="m 44.8,153.2 c 5.5,5.4 27.6,26.7 48.2,26.7 20.6,0 42.6,-25.5 42.6,-25.5 0,0 -46.2,24.6 -90.8,-1.2 z"
           inkscape:connector-curvature="0"
           style="fill:#7f443b;stroke-width:1" />
        <path
           id="path_5"
           d="m 44.8,153.2 c 16.6,6.9 43.8,-8.9 47,8 3,-17.4 14.7,0.8 43.9,-6.7 0,0 -19.6,17.1 -43.8,16.3 C 67.7,170 54.2,159 44.8,153.2 Z"
           inkscape:connector-curvature="0"
           style="fill:#aa6150;stroke-width:1" />
        <path
           id="path_6"
           d="m 99.4,159.8 c -0.4,1.1 0.9,2.1 2.8,2.4 1.9,0.3 3.8,-0.5 4.2,-1.6 0.4,-1.1 -0.9,-2.1 -2.8,-2.4 -1.9,-0.3 -3.8,0.5 -4.2,1.6 z"
           inkscape:connector-curvature="0"
           style="fill:#ffffff;stroke-width:1" />
        <path
           id="path_7"
           d="m 131.4,143.9 c 12.6,-2.6 12.6,-2.6 14.2,8.3 0.1,0 2.3,-15.4 -14.2,-8.3 z m -21.5,-20.2 c 9.2,-37.2 9.2,-37.2 42.8,-14.4 l 5.3,-3.1 c -13.8,-11 -13.8,-11 -30.5,-6.2 -16.7,4.8 -17.6,23.7 -17.6,23.7 z"
           inkscape:connector-curvature="0"
           style="fill:#56342c;stroke-width:1" />
        <path
           id="path_8"
           d="m 66.9,114.7 c 0.2,-1.4 0.3,-2.9 0.1,-4.3 2.4,4.1 4,8.6 4.9,13.2 -4.1,1 -8.4,1.6 -12.6,1.7 4,-2.1 6.8,-6 7.6,-10.6 z m -38.7,-7.4 c 6.1,-4.1 11.3,-6.4 15.9,-7.4 -6.8,4.5 -8.7,13.7 -4.2,20.5 0.2,0.2 0.3,0.5 0.5,0.7 -5.6,-3 -9.9,-7.9 -12.2,-13.8 z"
           inkscape:connector-curvature="0"
           style="fill:#ffffff;stroke-width:1" />
        <path
           id="path_9"
           d="m 37.6,109.9 c 0.7,-4.1 3,-7.7 6.5,-10 11.9,-2.6 18.9,3.7 22.9,10.5 0.8,6.1 -2.3,12.1 -7.8,15 -8.2,0.2 -14.3,-1.7 -18.8,-4.3 -2.5,-3.2 -3.4,-7.2 -2.8,-11.2 z"
           inkscape:connector-curvature="0"
           style="fill:#56342c;stroke-width:1" />
        <path
           id="path_10"
           d="m 44.12,106.844 c -0.168,1.023 0.223,2.057 1.024,2.714 0.802,0.656 1.893,0.835 2.862,0.469 0.97,-0.366 1.67,-1.221 1.838,-2.244 0.167,-1.022 -0.223,-2.056 -1.025,-2.713 -0.801,-0.656 -1.892,-0.835 -2.861,-0.469 -0.97,0.366 -1.67,1.221 -1.838,2.243 z"
           inkscape:connector-curvature="0"
           style="fill:#ffffff;stroke-width:1" />
        <path
           id="path_11"
           d="M 71.8,123.7 C 62.6,86.5 62.6,86.5 29,109.3 l -5.3,-3.1 c 13.8,-11 13.8,-11 30.5,-6.2 16.7,4.8 17.6,23.7 17.6,23.7 z"
           inkscape:connector-curvature="0"
           style="fill:#56342c;stroke-width:1" />
      </g>
    </g>
  </g>
</svg>
