<?xml version="1.0" encoding="UTF-8" standalone="no"?>
<svg
   xmlns:dc="http://purl.org/dc/elements/1.1/"
   xmlns:cc="http://creativecommons.org/ns#"
   xmlns:rdf="http://www.w3.org/1999/02/22-rdf-syntax-ns#"
   xmlns:svg="http://www.w3.org/2000/svg"
   xmlns="http://www.w3.org/2000/svg"
   xmlns:sodipodi="http://sodipodi.sourceforge.net/DTD/sodipodi-0.dtd"
   xmlns:inkscape="http://www.inkscape.org/namespaces/inkscape"
   viewBox="0 0 142 142"
   id="vector"
   version="1.1"
   inkscape:version="0.91 r13725"
   sodipodi:docname="leg_left2.svg"
   width="142"
   height="142">
  <metadata
     id="metadata13">
    <rdf:RDF>
      <cc:Work
         rdf:about="">
        <dc:format>image/svg+xml</dc:format>
        <dc:type
           rdf:resource="http://purl.org/dc/dcmitype/StillImage" />
        <dc:title></dc:title>
      </cc:Work>
    </rdf:RDF>
  </metadata>
  <defs
     id="defs11" />
  <sodipodi:namedview
     pagecolor="#ffffff"
     bordercolor="#666666"
     borderopacity="1"
     objecttolerance="10"
     gridtolerance="10"
     guidetolerance="10"
     inkscape:pageopacity="0"
     inkscape:pageshadow="2"
     inkscape:window-width="1920"
     inkscape:window-height="1017"
     id="namedview9"
     showgrid="false"
     inkscape:zoom="1.6619718"
     inkscape:cx="-33.525424"
     inkscape:cy="71"
     inkscape:window-x="-8"
     inkscape:window-y="-8"
     inkscape:window-maximized="1"
     inkscape:current-layer="vector" />
  <g
     id="group" />
  <g
     id="layer_2"
     transform="translate(30,0)">
    <g
       id="ui">
      <path
         id="path"
         d="M 56.9,142 36.2,142 23,15.6 l 16.6,0 z"
         inkscape:connector-curvature="0"
         style="fill:#b5746f;stroke-width:1" />
      <path
         id="path_1"
         d="m 54.7,3.4 35.1,105.8 c 0.9,2.8 -1.5,5.6 -5.1,5.8 l -65.8,4.2 C 15.8,119.4 13,117.5 12.7,115 L 0,9.4 C -0.3,6.9 1.9,4.7 5,4.4 L 48.4,0 c 2.9,-0.3 5.6,1.2 6.3,3.4 z"
         inkscape:connector-curvature="0"
         style="fill:#225b89;stroke-width:1" />
      <path
         id="path_2"
         d="m 12.1,96.6 75.2,-5.3 c 2.7,-0.2 5.1,1.9 5.3,4.6 l 1.2,17 c 0.2,2.7 -1.9,5.1 -4.6,5.3 L 14,123.5 c -2.7,0.2 -5.1,-1.9 -5.3,-4.6 l -1.2,-17 c -0.2,-2.8 1.9,-5.1 4.6,-5.3 z"
         inkscape:connector-curvature="0"
         style="fill:#3572af;stroke-width:1" />
    </g>
  </g>
</svg>
