<?xml version="1.0" encoding="UTF-8" standalone="no"?>
<svg
   xmlns:dc="http://purl.org/dc/elements/1.1/"
   xmlns:cc="http://creativecommons.org/ns#"
   xmlns:rdf="http://www.w3.org/1999/02/22-rdf-syntax-ns#"
   xmlns:svg="http://www.w3.org/2000/svg"
   xmlns="http://www.w3.org/2000/svg"
   xmlns:sodipodi="http://sodipodi.sourceforge.net/DTD/sodipodi-0.dtd"
   xmlns:inkscape="http://www.inkscape.org/namespaces/inkscape"
   viewBox="0 0 183 183"
   id="vector"
   version="1.1"
   inkscape:version="0.91 r13725"
   sodipodi:docname="shirt2.svg"
   width="183"
   height="183">
  <metadata
     id="metadata15">
    <rdf:RDF>
      <cc:Work
         rdf:about="">
        <dc:format>image/svg+xml</dc:format>
        <dc:type
           rdf:resource="http://purl.org/dc/dcmitype/StillImage" />
        <dc:title></dc:title>
      </cc:Work>
    </rdf:RDF>
  </metadata>
  <defs
     id="defs13" />
  <sodipodi:namedview
     pagecolor="#ffffff"
     bordercolor="#666666"
     borderopacity="1"
     objecttolerance="10"
     gridtolerance="10"
     guidetolerance="10"
     inkscape:pageopacity="0"
     inkscape:pageshadow="2"
     inkscape:window-width="1920"
     inkscape:window-height="1017"
     id="namedview11"
     showgrid="false"
     inkscape:zoom="1.2896175"
     inkscape:cx="-36.631356"
     inkscape:cy="91.5"
     inkscape:window-x="-8"
     inkscape:window-y="-8"
     inkscape:window-maximized="1"
     inkscape:current-layer="vector" />
  <g
     id="layer_1"
     transform="translate(22,0)">
    <g
       id="group" />
    <g
       id="ui_5_">
      <path
         id="path"
         d="M 97.6,3.5 C 95.3,15.2 81.9,24.1 65.7,24.1 49.5,24.1 36.1,15.3 33.8,3.7 L 12.3,6.1 C 5.5,6.9 0.6,12.3 1.3,18.3 l 18.9,164.5 93.3,0 18.9,-164.5 c 0.7,-6 -4.2,-11.4 -11,-12.1 L 97.6,3.5 Z"
         inkscape:connector-curvature="0"
         style="fill:#e8f7fc;stroke-width:1" />
      <path
         id="path_1"
         d="m 65.7,24.2 c 16.2,0 29.6,-9 31.9,-20.6 L 65.7,0 33.8,3.7 c 2.4,11.6 15.7,20.5 31.9,20.5 z"
         inkscape:connector-curvature="0"
         style="fill:#b5746f;stroke-width:1" />
      <path
         id="path_2"
         d="m 20.1,171.5 94.4,0 c 1.8,0 3.2,1.3 3.2,2.8 l 0,6.4 c 0,1.6 -1.4,2.8 -3.2,2.8 l -94.4,0 c -1.8,0 -3.2,-1.3 -3.2,-2.8 l 0,-6.4 c 0,-1.6 1.4,-2.8 3.2,-2.8 z"
         inkscape:connector-curvature="0"
         style="fill:#3572af;stroke-width:1" />
      <path
         id="path_3"
         d="M 106.2,4 83.7,87.8 c -0.3,1 -1.2,1.6 -2.4,1.6 l -28.4,0 c -1.1,0 -2.1,-0.7 -2.4,-1.6 L 26.5,3.7 C 26.2,2.7 25.1,2 23.9,2 L 11.6,3 C 10.3,3.1 9.3,4.1 9.4,5.3 l 0,0.1 14,108.4 c 0.1,1.1 -0.6,2.1 -1.8,2.3 l -6.8,1.5 c -1.2,0.3 -2,1.2 -1.8,2.3 l 5.7,49.7 c 0.1,1.1 1.2,1.9 2.4,1.9 l 92.3,0 c 1.3,0 2.3,-0.8 2.4,-1.9 l 4.8,-47.5 c 0.1,-0.9 -0.5,-1.8 -1.5,-2.2 l -7.3,-2.5 c -1,-0.3 -1.6,-1.2 -1.5,-2.2 l 12,-109.5 c 0.1,-1.2 -0.8,-2.2 -2.2,-2.3 l -11.4,-1 C 107.6,2.2 106.5,3 106.2,4 Z"
         inkscape:connector-curvature="0"
         style="fill:#3572af;stroke-width:1" />
      <path
         id="path_4"
         d="m 41.8,104.4 c -3.038,0 -5.5,2.462 -5.5,5.5 0,3.038 2.462,5.5 5.5,5.5 3.038,0 5.5,-2.462 5.5,-5.5 0,-3.038 -2.462,-5.5 -5.5,-5.5 z m 49.1,0 c -3.038,0 -5.5,2.462 -5.5,5.5 0,3.038 2.462,5.5 5.5,5.5 3.038,0 5.5,-2.462 5.5,-5.5 0,-3.038 -2.462,-5.5 -5.5,-5.5 z"
         inkscape:connector-curvature="0"
         style="fill:#235a87;stroke-width:1" />
    </g>
  </g>
</svg>
