<?xml version="1.0" encoding="UTF-8" standalone="no"?>
<svg
   xmlns:dc="http://purl.org/dc/elements/1.1/"
   xmlns:cc="http://creativecommons.org/ns#"
   xmlns:rdf="http://www.w3.org/1999/02/22-rdf-syntax-ns#"
   xmlns:svg="http://www.w3.org/2000/svg"
   xmlns="http://www.w3.org/2000/svg"
   xmlns:sodipodi="http://sodipodi.sourceforge.net/DTD/sodipodi-0.dtd"
   xmlns:inkscape="http://www.inkscape.org/namespaces/inkscape"
   viewBox="0 0 182 183"
   id="vector"
   version="1.1"
   inkscape:version="0.91 r13725"
   sodipodi:docname="shirt1.svg"
   width="182"
   height="183">
  <metadata
     id="metadata13">
    <rdf:RDF>
      <cc:Work
         rdf:about="">
        <dc:format>image/svg+xml</dc:format>
        <dc:type
           rdf:resource="http://purl.org/dc/dcmitype/StillImage" />
        <dc:title></dc:title>
      </cc:Work>
    </rdf:RDF>
  </metadata>
  <defs
     id="defs11" />
  <sodipodi:namedview
     pagecolor="#ffffff"
     bordercolor="#666666"
     borderopacity="1"
     objecttolerance="10"
     gridtolerance="10"
     guidetolerance="10"
     inkscape:pageopacity="0"
     inkscape:pageshadow="2"
     inkscape:window-width="1920"
     inkscape:window-height="1017"
     id="namedview9"
     showgrid="false"
     inkscape:zoom="1.2896175"
     inkscape:cx="-37.131356"
     inkscape:cy="91.5"
     inkscape:window-x="-8"
     inkscape:window-y="-8"
     inkscape:window-maximized="1"
     inkscape:current-layer="vector" />
  <g
     id="group" />
  <g
     id="layer_2"
     transform="translate(24,0)">
    <g
       id="ui">
      <path
         id="path"
         d="M 96.87,3.54 C 94.6,15.22 81.27,24.18 65.16,24.18 49.05,24.18 35.82,15.28 33.47,3.67 L 0,7.54 20,182.8 l 92.73,0 20,-175.26 z"
         inkscape:connector-curvature="0"
         style="fill:#ffd4d2;stroke-width:1" />
      <path
         id="path_1"
         d="m 65.16,24.18 c 16.11,0 29.44,-9 31.71,-20.64 L 65.16,0 33.47,3.67 c 2.35,11.61 15.64,20.51 31.69,20.51 z"
         inkscape:connector-curvature="0"
         style="fill:#b5746f;stroke-width:1" />
      <path
         id="path_2"
         d="m 19.5,171.46 94.53,0 c 0.745,0 1.46,0.296 1.987,0.823 0.527,0.527 0.823,1.242 0.823,1.987 l 0,6.4 c 0,0.745 -0.296,1.46 -0.823,1.987 -0.527,0.527 -1.242,0.823 -1.987,0.823 l -94.53,0 c -0.745,0 -1.46,-0.296 -1.987,-0.823 -0.527,-0.527 -0.823,-1.242 -0.823,-1.987 l 0,-6.4 c 0,-0.745 0.296,-1.46 0.823,-1.987 0.527,-0.527 1.242,-0.823 1.987,-0.823"
         inkscape:connector-curvature="0"
         style="fill:#e58b73;stroke-width:1" />
    </g>
  </g>
</svg>
