<?xml version="1.0" encoding="UTF-8" standalone="no"?>
<svg
   xmlns:dc="http://purl.org/dc/elements/1.1/"
   xmlns:cc="http://creativecommons.org/ns#"
   xmlns:rdf="http://www.w3.org/1999/02/22-rdf-syntax-ns#"
   xmlns:svg="http://www.w3.org/2000/svg"
   xmlns="http://www.w3.org/2000/svg"
   xmlns:sodipodi="http://sodipodi.sourceforge.net/DTD/sodipodi-0.dtd"
   xmlns:inkscape="http://www.inkscape.org/namespaces/inkscape"
   viewBox="0 0 145 145"
   id="vector"
   version="1.1"
   inkscape:version="0.91 r13725"
   sodipodi:docname="shoes_right1.svg"
   width="145"
   height="145">
  <metadata
     id="metadata14">
    <rdf:RDF>
      <cc:Work
         rdf:about="">
        <dc:format>image/svg+xml</dc:format>
        <dc:type
           rdf:resource="http://purl.org/dc/dcmitype/StillImage" />
        <dc:title></dc:title>
      </cc:Work>
    </rdf:RDF>
  </metadata>
  <defs
     id="defs12" />
  <sodipodi:namedview
     pagecolor="#ffffff"
     bordercolor="#666666"
     borderopacity="1"
     objecttolerance="10"
     gridtolerance="10"
     guidetolerance="10"
     inkscape:pageopacity="0"
     inkscape:pageshadow="2"
     inkscape:window-width="1920"
     inkscape:window-height="1017"
     id="namedview10"
     showgrid="false"
     inkscape:zoom="1.6275862"
     inkscape:cx="-35.216102"
     inkscape:cy="72.5"
     inkscape:window-x="-8"
     inkscape:window-y="-8"
     inkscape:window-maximized="1"
     inkscape:current-layer="vector" />
  <g
     id="group" />
  <g
     id="layer_2"
     transform="matrix(-0.96772074,0,0,1,119.3489,0.61440678)">
    <g
       id="ui">
      <path
         id="path"
         d="m 31.69,106.91 -22,1.95 L 1.71,0 22.36,0 31.69,106.91 Z"
         inkscape:connector-curvature="0"
         style="fill:#b5746f;stroke-width:1" />
      <path
         id="path_1"
         d="m 1.46,145.87 85.86,0 c 19,-38.72 19,-38.72 -70.62,-42.35 C -7,102.56 1.46,145.87 1.46,145.87 Z"
         inkscape:connector-curvature="0"
         style="fill:#ffd4d2;stroke-width:1" />
      <path
         id="path_2"
         d="m 89.37,145.87 c 1.243,-0.016 2.407,-0.609 3.152,-1.604 0.744,-0.995 0.984,-2.279 0.648,-3.476 -2.58,-8.81 -10.3,-26.37 -31.46,-30.56 -24.28,-4.81 -10.46,35.64 -10.46,35.64 z M 5.42,107.2 c 2.54,10 2.54,10 17.93,6.91 15.39,-3.09 14,-9.15 14,-9.15 0,0 -27.89,-5.61 -31.93,2.24 z"
         inkscape:connector-curvature="0"
         style="fill:#ffeeee;stroke-width:1" />
      <path
         id="path_3"
         d="m 49.37,139.21 -48.63,0 0.72,6.66 49.79,0 -1.88,-6.66 z"
         inkscape:connector-curvature="0"
         style="fill:#ffeeee;stroke-width:1" />
    </g>
  </g>
</svg>
